# xmcd
#
# Track frame offsets: 
#        150
#        12108
#        25980
#        38769
#        52514
#        65821
#        78994
#        91980
#        105065
#        116801
#        128514
#        141523
#        153692
#        166679
#        180315
#        194565
#        208317
#        223217
#        237237
#        251095
#        264256
#        277603
#
# Disc length: 3887 seconds
#
# Revision: 2
# Processed by: cddbd v1.5.2PL0 Copyright (c) Steve Scherf et al.
# Submitted via: ExactAudioCopyFreeDBPlugin 1.0
#
DISCID=290f2d16
DTITLE=Ma Rainey - Mother of the Blues, 1923-1928 [JSP Records]
DYEAR=2013
DGENRE=Blues
TTITLE0=Morning Hour Blues
TTITLE1=Weeping Woman Blues
TTITLE2=Soon This Morning
TTITLE3=Little Low Mama Blues
TTITLE4=Grievin' Hearted Blues
TTITLE5=Don't Fish in My Sea
TTITLE6=Big Boy Blues
TTITLE7=Blues Oh Blues
TTITLE8=Damper Down Blues
TTITLE9=Gone Daddy Blues (take 1)
TTITLE10=Oh Papa Blues
TTITLE11=Misery Blues
TTITLE12=Dead Drunk Blues
TTITLE13=Slow Driving Moan
TTITLE14=Blues the World Forgot, Part 1
TTITLE15=Ma Rainey's Black Bottom
TTITLE16=Blues the World Forgot, Part 2
TTITLE17=Hellish Rag
TTITLE18=Gerogia Cake Walk
TTITLE19=New Bo Weavil Blues
TTITLE20=Moonlight Blues
TTITLE21=Ice Bag Papa
EXTD=YEAR: 2016
EXTT0=
EXTT1=
EXTT2=
EXTT3=
EXTT4=
EXTT5=
EXTT6=
EXTT7=
EXTT8=
EXTT9=
EXTT10=
EXTT11=
EXTT12=
EXTT13=
EXTT14=
EXTT15=
EXTT16=
EXTT17=
EXTT18=
EXTT19=
EXTT20=
EXTT21=
PLAYORDER=
